<svg xmlns="http://www.w3.org/2000/svg" xmlns:xlink="http://www.w3.org/1999/xlink" width="150" zoomAndPan="magnify" viewBox="0 0 112.5 37.5" height="50" preserveAspectRatio="xMidYMid meet" version="1.0"><defs><g/><clipPath id="47e5eccbe1"><path d="M 0.492188 0 L 111.511719 0 L 111.511719 37.007812 L 0.492188 37.007812 Z M 0.492188 0 " clip-rule="nonzero"/></clipPath></defs><g clip-path="url(#47e5eccbe1)"><path fill="#ffffff" d="M 0.492188 0 L 111.511719 0 L 111.511719 37.007812 L 0.492188 37.007812 Z M 0.492188 0 " fill-opacity="1" fill-rule="nonzero"/><path fill="#ffffff" d="M 0.492188 0 L 111.511719 0 L 111.511719 37.007812 L 0.492188 37.007812 Z M 0.492188 0 " fill-opacity="1" fill-rule="nonzero"/></g><g fill="#8c52ff" fill-opacity="1"><g transform="translate(4.194079, 26.849216)"><g><path d="M 16.09375 -4.34375 L 16.09375 -10.046875 L 11.515625 -0.859375 C 11.484375 -0.765625 11.414062 -0.71875 11.3125 -0.71875 L 8.546875 -0.71875 C 8.421875 -0.71875 8.34375 -0.765625 8.3125 -0.859375 L 3.4375 -10.296875 L 3.4375 -0.203125 C 3.4375 -0.0664062 3.351562 0 3.1875 0 L 0.21875 0 C 0.0703125 0 0 -0.0664062 0 -0.203125 L 0 -17.78125 C 0 -17.914062 0.0703125 -17.984375 0.21875 -17.984375 L 3.234375 -17.984375 C 3.359375 -17.984375 3.4375 -17.941406 3.46875 -17.859375 L 9.921875 -4.671875 L 16.046875 -17.859375 C 16.109375 -17.941406 16.191406 -17.984375 16.296875 -17.984375 L 19.265625 -17.984375 C 19.429688 -17.984375 19.515625 -17.914062 19.515625 -17.78125 L 19.515625 -4.34375 Z M 16.09375 -4.34375 "/></g></g></g><g fill="#8c52ff" fill-opacity="1"><g transform="translate(24.693704, 26.849216)"><g><path d="M 10.34375 -8.953125 C 10.34375 -8.484375 10.179688 -8.082031 9.859375 -7.75 C 9.535156 -7.425781 9.132812 -7.265625 8.65625 -7.265625 C 8.1875 -7.265625 7.785156 -7.425781 7.453125 -7.75 C 7.128906 -8.082031 6.96875 -8.484375 6.96875 -8.953125 C 6.96875 -9.429688 7.128906 -9.832031 7.453125 -10.15625 C 7.785156 -10.488281 8.1875 -10.65625 8.65625 -10.65625 C 9.132812 -10.65625 9.535156 -10.488281 9.859375 -10.15625 C 10.179688 -9.832031 10.34375 -9.429688 10.34375 -8.953125 Z M 17.3125 -9.015625 C 17.3125 -7.890625 17.128906 -6.789062 16.765625 -5.71875 C 16.410156 -4.644531 15.875 -3.675781 15.15625 -2.8125 C 14.4375 -1.957031 13.535156 -1.273438 12.453125 -0.765625 C 11.378906 -0.253906 10.117188 0 8.671875 0 C 7.222656 0 5.953125 -0.253906 4.859375 -0.765625 C 3.773438 -1.273438 2.875 -1.957031 2.15625 -2.8125 C 1.4375 -3.675781 0.894531 -4.644531 0.53125 -5.71875 C 0.175781 -6.789062 0 -7.890625 0 -9.015625 C 0 -10.140625 0.175781 -11.234375 0.53125 -12.296875 C 0.894531 -13.359375 1.4375 -14.316406 2.15625 -15.171875 C 2.875 -16.023438 3.773438 -16.707031 4.859375 -17.21875 C 5.953125 -17.726562 7.222656 -17.984375 8.671875 -17.984375 C 10.117188 -17.984375 11.378906 -17.726562 12.453125 -17.21875 C 13.535156 -16.707031 14.4375 -16.023438 15.15625 -15.171875 C 15.875 -14.316406 16.410156 -13.359375 16.765625 -12.296875 C 17.128906 -11.234375 17.3125 -10.140625 17.3125 -9.015625 Z M 13.9375 -8.953125 C 13.9375 -9.679688 13.820312 -10.394531 13.59375 -11.09375 C 13.375 -11.789062 13.046875 -12.421875 12.609375 -12.984375 C 12.179688 -13.546875 11.632812 -13.988281 10.96875 -14.3125 C 10.3125 -14.644531 9.546875 -14.8125 8.671875 -14.8125 C 7.796875 -14.8125 7.023438 -14.644531 6.359375 -14.3125 C 5.703125 -13.988281 5.148438 -13.546875 4.703125 -12.984375 C 4.265625 -12.421875 3.9375 -11.789062 3.71875 -11.09375 C 3.5 -10.394531 3.390625 -9.679688 3.390625 -8.953125 C 3.390625 -8.234375 3.5 -7.523438 3.71875 -6.828125 C 3.9375 -6.140625 4.265625 -5.519531 4.703125 -4.96875 C 5.148438 -4.414062 5.703125 -3.972656 6.359375 -3.640625 C 7.023438 -3.304688 7.796875 -3.140625 8.671875 -3.140625 C 9.546875 -3.140625 10.3125 -3.304688 10.96875 -3.640625 C 11.632812 -3.972656 12.179688 -4.414062 12.609375 -4.96875 C 13.046875 -5.519531 13.375 -6.140625 13.59375 -6.828125 C 13.820312 -7.523438 13.9375 -8.234375 13.9375 -8.953125 Z M 13.9375 -8.953125 "/></g></g></g><g fill="#8c52ff" fill-opacity="1"><g transform="translate(42.855659, 26.849216)"><g><path d="M 3.1875 -17.984375 C 4.0625 -17.984375 4.984375 -17.921875 5.953125 -17.796875 C 6.929688 -17.679688 7.875 -17.453125 8.78125 -17.109375 C 9.695312 -16.765625 10.523438 -16.257812 11.265625 -15.59375 C 12.015625 -14.9375 12.609375 -14.070312 13.046875 -13 C 13.492188 -11.9375 13.71875 -10.601562 13.71875 -9 C 13.71875 -7.445312 13.5 -6.140625 13.0625 -5.078125 C 12.625 -4.023438 12.035156 -3.164062 11.296875 -2.5 C 10.566406 -1.832031 9.738281 -1.316406 8.8125 -0.953125 C 7.894531 -0.585938 6.953125 -0.335938 5.984375 -0.203125 C 5.023438 -0.0664062 4.09375 0 3.1875 0 L 0.25 0 C 0.0820312 0 0 -0.0664062 0 -0.203125 L 0 -7.265625 L 3.4375 -7.265625 L 3.4375 -3.3125 C 3.875 -3.289062 4.382812 -3.296875 4.96875 -3.328125 C 5.550781 -3.367188 6.148438 -3.484375 6.765625 -3.671875 C 7.378906 -3.859375 7.953125 -4.15625 8.484375 -4.5625 C 9.015625 -4.96875 9.441406 -5.53125 9.765625 -6.25 C 10.085938 -6.96875 10.25 -7.882812 10.25 -9 C 10.25 -10.414062 9.953125 -11.554688 9.359375 -12.421875 C 8.773438 -13.285156 7.96875 -13.898438 6.9375 -14.265625 C 5.90625 -14.628906 4.738281 -14.773438 3.4375 -14.703125 L 3.4375 -10.71875 L 0 -10.71875 L 0 -17.78125 C 0 -17.914062 0.0820312 -17.984375 0.25 -17.984375 Z M 3.1875 -17.984375 "/></g></g></g><g fill="#8c52ff" fill-opacity="1"><g transform="translate(57.263838, 26.849216)"><g><path d="M 8.546875 -3.34375 L 8.546875 0 L 0.25 0 C 0.0820312 0 0 -0.0664062 0 -0.203125 L 0 -17.78125 C 0 -17.914062 0.0820312 -17.984375 0.25 -17.984375 L 8.546875 -17.984375 L 8.546875 -14.734375 L 3.4375 -14.734375 L 3.4375 -10.65625 L 10.5 -10.65625 C 10.664062 -10.65625 10.75 -10.585938 10.75 -10.453125 L 10.75 -7.59375 C 10.75 -7.457031 10.664062 -7.390625 10.5 -7.390625 L 3.4375 -7.390625 L 3.4375 -3.34375 Z M 8.546875 -3.34375 "/></g></g></g><g fill="#8c52ff" fill-opacity="1"><g transform="translate(68.547618, 26.849216)"><g><path d="M 9.71875 -3.34375 C 9.875 -3.34375 9.953125 -3.269531 9.953125 -3.125 L 9.953125 -0.203125 C 9.953125 -0.0664062 9.875 0 9.71875 0 L 0.25 0 C 0.0820312 0 0 -0.0664062 0 -0.203125 L 0 -3.34375 Z M 3.4375 -6.796875 L 0 -6.796875 L 0 -17.78125 C 0 -17.914062 0.0820312 -17.984375 0.25 -17.984375 L 3.21875 -17.984375 C 3.363281 -17.984375 3.4375 -17.914062 3.4375 -17.78125 Z M 3.4375 -6.796875 "/></g></g></g><g fill="#8c52ff" fill-opacity="1"><g transform="translate(79.022205, 26.849216)"><g><path d="M 8.546875 -3.34375 L 8.546875 0 L 0.25 0 C 0.0820312 0 0 -0.0664062 0 -0.203125 L 0 -17.78125 C 0 -17.914062 0.0820312 -17.984375 0.25 -17.984375 L 8.546875 -17.984375 L 8.546875 -14.734375 L 3.4375 -14.734375 L 3.4375 -10.65625 L 10.5 -10.65625 C 10.664062 -10.65625 10.75 -10.585938 10.75 -10.453125 L 10.75 -7.59375 C 10.75 -7.457031 10.664062 -7.390625 10.5 -7.390625 L 3.4375 -7.390625 L 3.4375 -3.34375 Z M 8.546875 -3.34375 "/></g></g></g><g fill="#8c52ff" fill-opacity="1"><g transform="translate(90.305985, 26.849216)"><g><path d="M 16.390625 -17.984375 C 16.515625 -17.984375 16.597656 -17.945312 16.640625 -17.875 C 16.679688 -17.800781 16.671875 -17.726562 16.609375 -17.65625 L 10.40625 -9 C 11.070312 -8.082031 11.738281 -7.15625 12.40625 -6.21875 C 13.070312 -5.289062 13.734375 -4.363281 14.390625 -3.4375 L 10.203125 -3.4375 L 8.34375 -6.078125 L 4.046875 -0.0625 C 4.035156 -0.0507812 4.003906 -0.0351562 3.953125 -0.015625 C 3.910156 -0.00390625 3.875 0 3.84375 0 L 0.25 0 C 0.144531 0 0.0703125 -0.0351562 0.03125 -0.109375 C 0 -0.179688 0.0078125 -0.257812 0.0625 -0.34375 L 6.234375 -9 C 5.566406 -9.90625 4.90625 -10.820312 4.25 -11.75 C 3.59375 -12.6875 2.929688 -13.617188 2.265625 -14.546875 L 6.453125 -14.546875 L 8.34375 -11.921875 L 12.59375 -17.921875 C 12.601562 -17.953125 12.632812 -17.96875 12.6875 -17.96875 C 12.738281 -17.976562 12.773438 -17.984375 12.796875 -17.984375 Z M 16.390625 -17.984375 "/></g></g></g></svg>